<?xml version="1.0" standalone="yes"?>
<!DOCTYPE svg PUBLIC "-//W3C//DTD SVG 1.1//EN"
 "http://www.w3.org/Graphics/SVG/1.1/DTD/svg11.dtd">
<svg xmlns="http://www.w3.org/2000/svg" version="1.1"
  width="100%" height="100%" viewBox="0 0 1024 768"
  style="fill: none; font-family: Helvetica;
 font: Helvetica;
">

<!-- Creator: NGspice -->

<rect x="0" y="0" width="1024" height="768" fill="black" stroke="none"/>
<text stroke="none" fill="white" font-size="16" x="358" y="752">
v-sweep
</text>
<text stroke="none" fill="white" font-size="16" x="10" y="16">
dc1: ** sch_path: /home/lxbtlr/madvlsi-mp4-dac/top_dac_vtc.sch
</text>
<path stroke="white" d="M50 720l0 -672"/>
<text stroke="none" fill="white" font-size="16" x="35" y="728">
0.0
</text>
<path stroke="white" stroke-dasharray="1,2" d="M152 720l0 -672"/>
<text stroke="none" fill="white" font-size="16" x="137" y="728">
0.2
</text>
<path stroke="white" stroke-dasharray="1,2" d="M254 720l0 -672"/>
<text stroke="none" fill="white" font-size="16" x="239" y="728">
0.4
</text>
<path stroke="white" stroke-dasharray="1,2" d="M356 720l0 -672"/>
<text stroke="none" fill="white" font-size="16" x="341" y="728">
0.6
</text>
<path stroke="white" stroke-dasharray="1,2" d="M458 720l0 -672"/>
<text stroke="none" fill="white" font-size="16" x="443" y="728">
0.8
</text>
<path stroke="white" stroke-dasharray="1,2" d="M560 720l0 -672"/>
<text stroke="none" fill="white" font-size="16" x="545" y="728">
1.0
</text>
<path stroke="white" stroke-dasharray="1,2" d="M662 720l0 -672"/>
<text stroke="none" fill="white" font-size="16" x="647" y="728">
1.2
</text>
<path stroke="white" stroke-dasharray="1,2" d="M764 720l0 -672"/>
<text stroke="none" fill="white" font-size="16" x="749" y="728">
1.4
</text>
<path stroke="white" stroke-dasharray="1,2" d="M866 720l0 -672"/>
<text stroke="none" fill="white" font-size="16" x="851" y="728">
1.6
</text>
<path stroke="white" stroke-dasharray="1,2" d="M968 720l0 -672"/>
<text stroke="none" fill="white" font-size="16" x="953" y="728">
1.8
</text>
<text stroke="none" fill="white" font-size="16" x="614" y="752">
V
</text>
<path stroke="white" stroke-dasharray="1,2" d="M50 720l918 0"/>
<text stroke="none" fill="white" font-size="16" x="8" y="728">
-1.2
</text>
<path stroke="white" stroke-dasharray="1,2" d="M50 636l918 0"/>
<text stroke="none" fill="white" font-size="16" x="8" y="644">
-1.0
</text>
<path stroke="white" stroke-dasharray="1,2" d="M50 552l918 0"/>
<text stroke="none" fill="white" font-size="16" x="8" y="560">
-0.8
</text>
<path stroke="white" stroke-dasharray="1,2" d="M50 468l918 0"/>
<text stroke="none" fill="white" font-size="16" x="8" y="476">
-0.6
</text>
<path stroke="white" stroke-dasharray="1,2" d="M50 384l918 0"/>
<text stroke="none" fill="white" font-size="16" x="8" y="392">
-0.4
</text>
<path stroke="white" stroke-dasharray="1,2" d="M50 300l918 0"/>
<text stroke="none" fill="white" font-size="16" x="8" y="308">
-0.2
</text>
<path stroke="white" d="M50 216l918 0"/>
<text stroke="none" fill="white" font-size="16" x="8" y="224">
-0.0
</text>
<path stroke="white" stroke-dasharray="1,2" d="M50 132l918 0"/>
<text stroke="none" fill="white" font-size="16" x="18" y="140">
0.2
</text>
<path stroke="white" stroke-dasharray="1,2" d="M50 48l918 0"/>
<text stroke="none" fill="white" font-size="16" x="18" y="56">
0.4
</text>
<text stroke="none" fill="white" font-size="16" x="10" y="32">
nA
</text>
<path stroke="red" d="M459 23l45 0"/>
<text stroke="none" fill="white" font-size="16" x="514" y="32">
i(viout_final)
</text>
<path stroke="red" d="M50 716l5 -170 5 -127 5 -93 5 -68 6 -47 5 -34 5 -23 5 -15 5 -9 5 -5 5 -3 10 -4 5 0 6 -1 5 0 5 -1 10 0 5 -1 15 0 5 -1 36 0 5 -1 26 0 5 -1 41 0 5 -1 25 0 5 -1 36 0 5 -1 46 0 5 -1 31 0 5 -1 41 0 5 -1 35 0 6 -1 30 0 5 -1 36 0"/>
<path stroke="red" d="M606 104l5 -1 5 1 5 -1 31 0 5 -1 20 0 5 -1 6 0 5 1 5 0 5 -1 30 0 6 -1 25 0 5 -1 10 0 5 1 6 -1 15 0 5 -1 5 1 5 0 5 -1 26 0 5 -1 36 0 5 -1 35 0 5 -1 31 0"/>
</svg>
